<svg width="57.000000" height="64.000000" viewBox="0 0 57 64" fill="none" xmlns="http://www.w3.org/2000/svg" xmlns:xlink="http://www.w3.org/1999/xlink">
	<desc>
			Created with Pixso.
	</desc>
	<defs/>
	<path id="path" d="M26 0C28.3359 0.136719 28.3359 0.136719 32 1C35.6562 2.74178 39.1308 4.76859 42.625 6.8125C44.0365 7.61397 44.0365 7.61397 45.4766 8.43164C50.0064 11.0472 53.2363 13.2363 57 17C57 26.57 57 36.14 57 46C56.01 47.65 55.02 49.3 54 51C46.74 55.29 39.48 59.58 32 64C30.35 64 28.7 64 27 64C26.505 59.05 26.505 59.05 26 54C24.7844 53.2897 23.5688 52.5795 22.3164 51.8477C20.7317 50.9193 19.1471 49.991 17.5625 49.0625C16.7601 48.5939 15.9576 48.1254 15.1309 47.6426C14.3671 47.1946 13.6033 46.7467 12.8164 46.2852C12.1094 45.8714 11.4025 45.4577 10.6741 45.0315C9 44 9 44 8 43C7.67001 38.71 7.34 34.42 7 30C6.67001 29.67 6.34 29.34 6 29C6 27.35 6 25.7 6 24C6.66 23.34 7.32001 22.68 8 22C9.32001 22.33 10.64 22.66 12 23C12.66 23.66 13.32 24.32 14 25C13.67 26.65 13.34 28.3 13 30C12.34 30 11.68 30 11 30C11.33 33.96 11.66 37.92 12 42C18.93 45.96 18.93 45.96 26 50C26.33 46.37 26.66 42.74 27 39C25.35 38.34 23.7 37.68 22 37C20.317 36.0276 18.6456 35.0344 17 34C16.67 31.03 16.34 28.06 16 25C15.34 24.34 14.68 23.68 14 23C14.33 21.68 14.66 20.36 15 19C15.66 18.34 16.32 17.68 17 17C18.32 17.33 19.64 17.66 21 18C21.33 18.33 21.66 18.66 22 19C22 20.65 22 22.3 22 24C21.67 24.33 21.34 24.66 21 25C20.67 27.64 20.34 30.28 20 33C20.7838 33.3094 21.5675 33.6188 22.375 33.9375C25 35 25 35 27 36C26.67 30.39 26.34 24.78 26 19C25.34 18.34 24.68 17.68 24 17C24.33 15.35 24.66 13.7 25 12C26.65 11.67 28.3 11.34 30 11C30.66 11.66 31.32 12.32 32 13C32 14.65 32 16.3 32 18C31.67 18.33 31.34 18.66 31 19C30.67 27.25 30.34 35.5 30 44C32.97 42.02 35.94 40.04 39 38C39 33.71 39 29.42 39 25C38.67 24.67 38.34 24.34 38 24C38 22.35 38 20.7 38 19C38.66 18.34 39.32 17.68 40 17C41.65 17.33 43.3 17.66 45 18C45.495 19.98 45.495 19.98 46 22C45.34 22.99 44.68 23.98 44 25C43.67 29.62 43.34 34.24 43 39C34.375 45.75 34.375 45.75 31 48C31 51.96 31 55.92 31 60C34.4803 58.0228 37.9593 56.0433 41.4375 54.0625C42.4307 53.4985 43.424 52.9346 44.4473 52.3535C45.8636 51.5462 45.8636 51.5462 47.3086 50.7227C48.1831 50.2252 49.0577 49.7277 49.9587 49.2151C51.9226 48.1594 51.9226 48.1594 53 47C53 37.1 53 27.2 53 17C45.41 12.71 37.82 8.42 30 4C24.531 4.64816 24.531 4.64816 21.8218 5.98389C20.8388 6.57581 20.8388 6.57581 19.8359 7.17969C19.1063 7.61411 18.3767 8.04852 17.625 8.49609C16.8825 8.95113 16.14 9.40617 15.375 9.875C14.6248 10.3223 13.8745 10.7696 13.1016 11.2305C9.57016 13.3531 6.30896 15.5183 3 18C3 27.24 3 36.48 3 46C3.98999 46.99 4.98001 47.98 6 49C6.74249 49.1444 7.48499 49.2887 8.25 49.4375C10.5203 49.9019 12.7576 50.4186 15 51C15.66 51.66 16.32 52.32 17 53C16.67 54.32 16.34 55.64 16 57C15.34 57.66 14.68 58.32 14 59C12.35 58.67 10.7 58.34 9 58C8.67001 56.35 8.34 54.7 8 53C7.23688 52.7319 6.47375 52.4637 5.6875 52.1875C4.80063 51.7956 3.91376 51.4037 3 51C2.01001 50.01 1.01999 49.02 0 48C0 37.44 0 26.88 0 16C5.9631 12.0246 11.8784 8.21294 18.0625 4.625C19.2178 3.95018 19.2178 3.95018 20.3965 3.26172C22.2629 2.17201 24.1312 1.08565 26 0Z" fill-rule="nonzero" fill="#1D1F1F"/>
</svg>
